<?xml version="1.0"?>
<svg xmlns="http://www.w3.org/2000/svg" id="Capa_1" enable-background="new 0 0 512 512" height="512px" viewBox="0 0 512 512" width="512px" class=""><g><g><path d="m256.013 0c-68.377 0-132.66 26.607-181.01 74.92-84.366 84.302-96.88 211.318-40.965 308.351l-33.345 107.907c-3.588 11.609 7.474 22.47 19.036 18.653l104.727-34.566c170.851 102.435 387.544-21.741 387.544-219.471 0-141.376-114.492-255.794-255.987-255.794zm-121.537 446.21c-3.806-2.43-8.5-3.015-12.781-1.602l-83.758 27.645 26.728-86.493c1.271-4.114.71-8.577-1.54-12.249-91.693-149.621 16.549-343.535 192.888-343.535 124.611 0 225.989 101.302 225.989 225.818-.001 178.233-197.984 285.909-347.526 190.416z" data-original="#000000" class="active-path" data-old_color="#000000" fill="#FC0064"/><path d="m376.007 180.854h-179.991c-8.284 0-14.999 6.71-14.999 14.988s6.715 14.988 14.999 14.988h179.991c8.284 0 14.999-6.71 14.999-14.988s-6.716-14.988-14.999-14.988z" data-original="#000000" class="active-path" data-old_color="#000000" fill="#FC0064"/><path d="m316.01 300.757h-179.991c-8.284 0-14.999 6.71-14.999 14.988s6.715 14.988 14.999 14.988h179.991c8.284 0 14.999-6.71 14.999-14.988s-6.716-14.988-14.999-14.988z" data-original="#000000" class="active-path" data-old_color="#000000" fill="#FC0064"/><path d="m376.007 240.806h-239.988c-8.284 0-14.999 6.71-14.999 14.988s6.715 14.988 14.999 14.988h239.988c8.284 0 14.999-6.71 14.999-14.988s-6.716-14.988-14.999-14.988z" data-original="#000000" class="active-path" data-old_color="#000000" fill="#FC0064"/><ellipse cx="376.007" cy="315.745" rx="14.999" ry="14.988" data-original="#000000" class="active-path" data-old_color="#000000" fill="#FC0064"/><ellipse cx="136.019" cy="196.841" rx="14.999" ry="14.988" data-original="#000000" class="active-path" data-old_color="#000000" fill="#FC0064"/></g></g> </svg>
